<svg width="156" height="156" viewBox="0 0 156 156" fill="none" xmlns="http://www.w3.org/2000/svg">
<svg width="156" height="156" viewBox="0 0 156 156" fill="none" xmlns="http://www.w3.org/2000/svg">
<rect width="156" height="156" rx="78" fill="#F1F6FA"/>
</svg>
<mask id="mask0_197_562" style="mask-type:alpha" maskUnits="userSpaceOnUse" x="0" y="0" width="156" height="156">
<rect width="156" height="156" rx="78" fill="#F4F6FB"/>
</mask>
<g mask="url(#mask0_197_562)">
<rect x="30" y="24" width="96" height="133" rx="12" fill="url(#paint0_linear_197_562)"/>
<rect opacity="0.1" x="38" y="38" width="80" height="28" rx="3" fill="#748F9E"/>
<rect opacity="0.3" x="44" y="44" width="16" height="16" rx="8" fill="#748F9E"/>
<rect opacity="0.6" x="64" y="46" width="44" height="4" rx="2" fill="#748F9E"/>
<rect opacity="0.3" x="64" y="54" width="29" height="4" rx="2" fill="#748F9E"/>
<rect opacity="0.1" x="38" y="70" width="80" height="28" rx="3" fill="#748F9E"/>
<rect opacity="0.3" x="44" y="76" width="16" height="16" rx="8" fill="#748F9E"/>
<rect opacity="0.6" x="64" y="78" width="44" height="4" rx="2" fill="#748F9E"/>
<rect opacity="0.3" x="64" y="86" width="29" height="4" rx="2" fill="#748F9E"/>
<rect opacity="0.1" x="38" y="102" width="80" height="28" rx="3" fill="#748F9E"/>
<rect opacity="0.3" x="44" y="108" width="16" height="16" rx="8" fill="#748F9E"/>
<rect opacity="0.6" x="64" y="110" width="44" height="4" rx="2" fill="#748F9E"/>
<rect opacity="0.3" x="64" y="118" width="29" height="4" rx="2" fill="#748F9E"/>
<rect opacity="0.1" x="38" y="134" width="80" height="28" rx="3" fill="#748F9E"/>
<rect opacity="0.3" x="44" y="140" width="16" height="16" rx="8" fill="#748F9E"/>
<rect opacity="0.6" x="64" y="142" width="44" height="4" rx="2" fill="#748F9E"/>
<rect opacity="0.3" x="64" y="150" width="29" height="4" rx="2" fill="#748F9E"/>
</g>
<defs>
<linearGradient id="paint0_linear_197_562" x1="42" y1="24" x2="126" y2="157" gradientUnits="userSpaceOnUse">
<stop offset="0.394003" stop-color="white"/>
<stop offset="1" stop-color="#F4F6FB"/>
</linearGradient>
</defs>
</svg>
